# AST/ASF file generated using VICON BodyLanguage
# -----------------------------------------------
:version 1.10
:name VICON
:units
  mass 1.0
  length 0.45
  angle deg
:documentation
   .ast/.asf automatically generated from VICON data using
   VICON BodyBuilder and BodyLanguage model FoxedUp or BRILLIANT.MOD
:root
   order TX TY TZ RX RY RZ
   axis XYZ
   position 0 0 0  
   orientation 0 0 0 
:bonedata
  begin
     id 1 
     name lhipjoint
     direction 0.523584 -0.783993 0.333487 
     length 2.44404 
     axis 0 0 0  XYZ
  end
  begin
     id 2 
     name lfemur
     direction 0.34202 -0.939693 0  
     length 7.29523  
     axis 0 0 20  XYZ
    dof rx ry rz
    limits (-160.0 20.0)
           (-70.0 70.0)
           (-60.0 70.0)
  end
  begin
     id 3 
     name ltibia
     direction 0.34215 -0.939645 0   
     length 7.81194   
     axis 0 0 20   XYZ
    dof rx
    limits (-10.0 170.0)
  end
  begin
     id 4 
     name lfoot
     direction 0.0941847 -0.25877 0.961336   
     length 2.41437   
     axis -90 7.62852e-016 20   XYZ
    dof rx rz
    limits (-45.0 90.0)
           (-70.0 20.0)
  end
  begin
     id 5 
     name ltoes
     direction 1.53526e-011 -4.21768e-011 1   
     length 1.2048   
     axis -90 7.62852e-016 20   XYZ
    dof rx
    limits (-90.0 20.0)
  end
  begin
     id 6 
     name rhipjoint
     direction -0.46599 -0.814191 0.346332   
     length 2.35339  
     axis 0 0 0  XYZ 
  end
  begin
     id 7 
     name rfemur
     direction -0.34202 -0.939693 0   
     length 7.34966   
     axis 0 0 -20   XYZ
    dof rx ry rz
    limits (-160.0 20.0)
           (-70.0 70.0)
           (-70.0 60.0)
  end
  begin
     id 8 
     name rtibia
     direction -0.34202 -0.939693 0   
     length 7.89934   
     axis 0 0 -20   XYZ
    dof rx
    limits (-10.0 170.0)
 end
 begin
     id 9 
     name rfoot
     direction -0.0975468 -0.268008 0.958466   
     length 2.27725  
     axis -90 -7.62852e-016 -20   XYZ
    dof rx rz
    limits (-45.0 90.0)
           (-20.0 70.0)
  end
  begin
     id 10 
     name rtoes
     direction -1.53563e-011 -4.22022e-011 1   
     length 1.13683   
     axis -90 -7.62852e-016 -20   XYZ
    dof rx
    limits (-90.0 20.0)
  end
  begin
     id 11 
     name lowerback
     direction -0.00456414 0.999242 -0.0386661   
     length 2.16968   
     axis 0 0 0   XYZ
    dof rx ry rz
    limits (-20.0 45.0)
           (-30.0 30.0)
           (-30.0 30.0)
  end
  begin
     id 12 
     name upperback
     direction 0.0297078 0.998988 0.0337799   
     length 2.15674   
     axis 0 0 0   XYZ
    dof rx ry rz
    limits (-20.0 45.0)
           (-30.0 30.0)
           (-30.0 30.0)
  end
  begin
     id 13 
     name thorax
     direction 0.0309305 0.998202 0.0513506   
     length 2.16319   
     axis 0 0 0   XYZ
    dof rx ry rz
    limits (-20.0 45.0)
           (-30.0 30.0)
           (-30.0 30.0)
  end
  begin
     id 14 
     name lowerneck
     direction -0.103039 0.983474 0.148872   
     length 1.64318   
     axis 0 0 0   XYZ
    dof rx ry rz
    limits (-20.0 45.0)
           (-30.0 30.0)
           (-30.0 30.0)
  end
  begin
     id 15 
     name upperneck
     direction 0.128124 0.971079 -0.201469   
     length 1.68242   
     axis 0 0 0   XYZ
    dof rx ry rz
    limits (-20.0 45.0)
           (-30.0 30.0)
           (-30.0 30.0)
  end
  begin
     id 16
     name head
     direction 0.0496365 0.994919 -0.0875941  
     length 1.70108  
     axis 0 0 0   XYZ
    dof rx ry rz
    limits (-20.0 45.0)
           (-30.0 30.0)
           (-30.0 30.0)
  end
  begin
     id 17 
     name lclavicle
     direction 0.887148 0.430222 -0.166967  
     length 3.25763  
     axis 0 0 0   XYZ
    dof ry rz
    limits (-20.0 10.0)
           (0.0 20.0)
  end
  begin
     id 18 
     name lhumerus
     direction 1 -4.48962e-011 1.92156e-027   
     length 5.10755   
     axis 180 -30 -90   XYZ
    dof rx ry rz
    limits (-60.0 90.0)
           (-90.0 90.0)
           (-90.0 90.0)
  end
  begin
     id 19
     name lradius
     direction 1 -4.48958e-011 7.10963e-027   
     length 3.36253   
     axis 180 -30 -90   XYZ
    dof rx
    limits (-10.0 170.0)
  end
  begin
     id 20
     name lwrist
     direction 1 -4.48946e-011 1.82396e-026   
     length 1.68127   
     axis -1.15222e-014 90 90   XYZ
    dof ry
    limits (-180.0 0.0)
 end
  begin
     id 21 
     name lhand
     direction 1 -4.48919e-011 3.64759e-026   
     length 0.619088   
     axis -2.32787e-014 90 90   XYZ
    dof rx rz
    limits (-90.0 90.0)
           (-45.0 45.0)
  end
  begin
     id 22 
     name lfingers
     direction 1 -4.49012e-011 7.29744e-026   
     length 0.499125   
     axis -4.6558e-014 90 90   XYZ
    dof rx
    limits (0.0 90.0)
  end
  begin
     id 23
     name lthumb
     direction 0.707107 -6.35028e-011 0.707107   
     length 0.716646   
     axis -90 45 3.78391e-014   XYZ
    dof rx rz
    limits (-45.0 45.0)
           (-45.0 45.0)
  end
  begin
     id 24 
     name rclavicle
     direction -0.82886 0.533198 -0.169384   
     length 3.20647  
     axis 0 0 0   XYZ 
    dof ry rz
    limits (-10.0 20.0)
           (-20.0 0.0)
  end
  begin
     id 25 
     name rhumerus
     direction -1 -4.48973e-011 3.06863e-027  
     length 5.27387   
     axis 180 30 90   XYZ
    dof rx ry rz
    limits (-90.0 60.0)
           (-90.0 90.0)
           (-90.0 90.0)
  end
  begin
     id 26 
     name rradius
     direction -1 -4.48988e-011 9.4797e-027   
     length 3.40144   
     axis 180 30 90   XYZ
    dof rx
    limits (-10.0 170.0)
  end
  begin
     id 27 
     name rwrist
     direction -1 -4.48897e-011 1.82366e-026   
     length 1.70072   
     axis -1.15222e-014 -90 -90   XYZ
    dof ry
    limits (-180.0 0.0)
  end
  begin
     id 28
     name rhand
     direction -1 -4.48965e-011 3.64815e-026   
     length 0.742821   
     axis -2.32787e-014 -90 -90   XYZ
    dof rx rz
    limits (-90.0 90.0)
           (-45.0 45.0)
  end
  begin
     id 29
     name rfingers
     direction -1 -4.49016e-011 7.29754e-026   
     length 0.598881   
     axis -4.6558e-014 -90 -90   XYZ
    dof rx
    limits (0.0 90.0)
  end
  begin
     id 30
     name rthumb
     direction -0.707107 -6.3488e-011 0.707107   
     length 0.859877   
     axis -90 -45 -3.78391e-014   XYZ
    dof rx rz
    limits (-45.0 45.0)
           (-45.0 45.0)
  end
:hierarchy
  begin
    root lhipjoint rhipjoint lowerback
    lhipjoint lfemur
    lfemur ltibia
    ltibia lfoot
    lfoot ltoes
    rhipjoint rfemur
    rfemur rtibia
    rtibia rfoot
    rfoot rtoes
    lowerback upperback
    upperback thorax
    thorax lowerneck lclavicle rclavicle
    lowerneck upperneck
    upperneck head
    lclavicle lhumerus
    lhumerus lradius
    lradius lwrist
    lwrist lhand lthumb
    lhand lfingers
    rclavicle rhumerus
    rhumerus rradius
    rradius rwrist
    rwrist rhand rthumb
    rhand rfingers
  end

#!OML:ASF F:\Work\Patient Classification 1\justin\Session 1\justin.ASF
:FULLY-SPECIFIED
:DEGREES
3267
root 0.244853 18.561 -4.95025 9.92175 -13.2669 -1.23505
lowerback 12.0106 -2.35468 2.56374
upperback -0.513833 -2.30804 6.6967
thorax -7.13312 -1.101 6.12762
lowerneck -19.5862 -6.88425 -16.0045
upperneck 16.7183 -7.63751 13.0899
head 9.67058 -3.23987 6.14742
rclavicle -3.10104e-014 -1.27222e-014
rhumerus -9.05457 20.0611 -69.0975
rradius 55.2922
rwrist -13.9712
rhand -25.7563 11.8037
rfingers 7.12502
rthumb 0.781103 -18.1746
lclavicle -3.10104e-014 -1.27222e-014
lhumerus -14.4386 -23.2443 92.8589
lradius 61.8812
lwrist 12.9666
lhand -10.7197 23.9381
lfingers 7.12502
lthumb 15.2905 53.3529
rfemur -16.2705 6.72864 20.6848
rtibia 20.7055
rfoot -9.21875 -0.0942575
rtoes -11.0227
lfemur -4.60601 6.51747 -18.7591
ltibia 7.06706
lfoot -7.84003 6.25719
ltoes -15.1307
3268
root 0.231064 18.5485 -4.91974 9.46942 -13.1319 -1.26931
lowerback 11.9124 -2.23676 2.53881
upperback -0.591292 -2.16659 6.5224
thorax -7.17744 -1.03247 5.92411
lowerneck -19.7955 -7.05743 -15.8435
upperneck 17.0751 -7.89914 12.9605
head 9.86301 -3.35879 6.03767
rclavicle -2.62396e-014 -6.36111e-015
rhumerus -11.301 19.4695 -70.1282
rradius 55.1374
rwrist -13.882
rhand -26.1202 11.7247
rfingers 7.12502
rthumb 0.42966 -18.2547
lclavicle -2.62396e-014 -6.36111e-015
lhumerus -16.2644 -23.0152 93.6361
lradius 61.4651
lwrist 13.4018
lhand -10.6556 24.8525
lfingers 7.12502
lthumb 15.3523 54.2626
rfemur -15.5183 7.06108 20.7982
rtibia 20.5556
rfoot -9.46376 -0.508666
rtoes -10.7459
lfemur -4.14279 6.38502 -18.617
ltibia 7.41763
lfoot -8.15284 6.25942
ltoes -15.5651
3269
root 0.218522 18.5361 -4.88648 9.07306 -12.9692 -1.41687
lowerback 11.7792 -2.10795 2.75938
upperback -0.634334 -1.98635 6.25606
thorax -7.17858 -0.956849 5.47007
lowerneck -20.1823 -7.23765 -15.5141
upperneck 17.4395 -8.22958 12.968
head 10.1014 -3.47683 5.93703
rclavicle -2.70347e-014 2.06736e-014
rhumerus -13.481 18.5316 -71.3198
rradius 55.1232
rwrist -13.8764
rhand -26.3019 11.1573
rfingers 7.12502
rthumb 0.254156 -18.8223
lclavicle -2.70347e-014 2.06736e-014
lhumerus -17.9863 -22.7292 94.176
lradius 61.0777
lwrist 14.1026
lhand -10.8435 25.1964
lfingers 7.12502
lthumb 15.1712 54.6203
rfemur -14.8077 7.16236 21.0379
rtibia 20.3804
rfoot -9.66512 -0.648309
rtoes -9.93518
lfemur -3.62741 6.24027 -18.3676
ltibia 7.6115
lfoot -8.3984 6.25765
ltoes -15.7916
3270
root 0.205856 18.527 -4.855 8.6534 -12.8361 -1.48984
lowerback 11.4357 -2.05986 2.84552
upperback -0.53088 -1.95596 6.0163
thorax -6.88482 -0.953172 5.12928
lowerneck -20.5383 -7.32863 -15.2655
upperneck 17.5942 -8.41595 13.0511
head 10.2445 -3.52485 5.89604
rclavicle -9.93923e-015 -1.90833e-014
rhumerus -15.2271 17.7547 -72.4575
rradius 54.9503
rwrist -13.7535
rhand -26.2353 10.7114
rfingers 7.12502
rthumb 0.318516 -19.2681
lclavicle -9.93923e-015 -1.90833e-014
lhumerus -19.4672 -22.126 94.5059
lradius 60.6393
lwrist 14.3407
lhand -11.1741 24.8612
lfingers 7.12502
lthumb 14.8528 54.3088
rfemur -14.116 7.12028 21.2201
rtibia 20.2408
rfoot -9.88683 -0.657234
rtoes -9.49693
lfemur -3.09814 6.11074 -18.1886
ltibia 7.72807
lfoot -8.4742 6.29969
ltoes -15.3488
3271
root 0.194665 18.5181 -4.82197 8.17209 -12.7508 -1.42315
lowerback 11.113 -2.00168 2.62344
upperback -0.530957 -1.93624 5.91548
thorax -6.69827 -0.939406 5.12434
lowerneck -20.3967 -7.34856 -15.3119
upperneck 17.6837 -8.45062 13.0087
head 10.256 -3.55405 5.88585
rclavicle -3.45885e-014 8.90555e-014
rhumerus -17.0846 17.0345 -73.337
rradius 54.2729
rwrist -13.0556
rhand -26.0516 12.0305
rfingers 7.12502
rthumb 0.495876 -17.9487
lclavicle -3.45885e-014 8.90555e-014
lhumerus -21.1191 -21.4426 95.1834
lradius 60.0468
lwrist 15.0431
lhand -11.8552 24.6181
lfingers 7.12502
lthumb 14.1965 54.113
rfemur -13.3459 7.04385 21.2451
rtibia 20.0495
rfoot -10.0782 -0.648902
rtoes -9.37123
lfemur -2.52199 6.00373 -18.1754
ltibia 7.83932
lfoot -8.51295 6.50035
ltoes -15.1959
3272
root 0.176452 18.5122 -4.82595 7.95981 -11.7923 -1.23322
lowerback 11.0921 -2.23886 2.17652
upperback -0.944309 -2.28296 5.98263
thorax -7.08492 -1.08427 5.52998
lowerneck -19.9104 -7.30969 -15.5195
upperneck 17.8394 -8.38259 12.8403
head 10.212 -3.57339 5.87817
rclavicle -3.81667e-014 3.18055e-014
rhumerus -19.3332 16.4036 -74.1089
rradius 53.7273
rwrist -12.2958
rhand -26.051 13.6766
rfingers 7.12502
rthumb 0.496482 -16.3026
lclavicle -3.81667e-014 3.18055e-014
lhumerus -23.0273 -20.4261 96.045
lradius 59.4619
lwrist 16.0866
lhand -12.4773 25.2486
lfingers 7.12502
lthumb 13.597 54.7845
rfemur -12.908 6.50711 21.2383
rtibia 19.8448
rfoot -10.2213 -1.03581
rtoes -8.64626
lfemur -2.43606 5.03301 -18.1171
ltibia 7.8317
lfoot -8.3502 6.65651
ltoes -15.8152
